<svg id="Layer_1" enable-background="new 0 0 512 512" viewBox="0 0 512 512" xmlns="http://www.w3.org/2000/svg"><g><g><path d="m235.642 286.523c-1.979 0-3.979-.577-5.736-1.781-2.573-1.763-59.57-41.468-45.631-86.379-6.145-5.041-15.544-13.718-23.943-25.476-16.28-22.792-22.048-47.579-16.95-72.29-19.037-5.295-58.523-19.227-74.582-46.9-4.777-8.231-7.177-16.956-7.191-26.084-19.176 9.44-48.35 31.693-39.57 77.671 9.653 2.848 28.677 9.75 49.181 24.307 26.479 18.799 60.656 54.503 73.097 117.833 1.083 5.513-2.509 10.862-8.022 11.945-5.514 1.087-10.862-2.509-11.945-8.022-21.273-108.29-111.98-127.631-112.895-127.814-3.856-.771-6.922-3.694-7.875-7.509-11.772-47.089 7.718-75.797 26.142-91.589 19.405-16.633 41.382-22.262 42.308-22.494 3.602-.898 7.409.233 9.933 2.958 2.523 2.724 3.361 6.607 2.187 10.13-3.498 10.494-2.767 19.793 2.236 28.428 13.643 23.551 56.246 36.697 71.511 39.775 2.858.576 5.336 2.352 6.797 4.875 1.462 2.523 1.775 5.552.853 8.318-17.687 53.061 36.144 89.698 36.689 90.062 4.27 2.846 5.751 8.426 3.457 13.016-16.129 32.257 35.204 68.1 35.724 68.459 4.624 3.184 5.801 9.515 2.622 14.143-1.974 2.872-5.158 4.418-8.397 4.418z"/></g><g><path d="m301.827 510.362h-23.84c-1.569 0-38.703-.527-61.601-46.323-2.513-5.026-.476-11.137 4.55-13.65 5.028-2.513 11.138-.476 13.651 4.551 16.89 33.78 42.011 35.03 43.482 35.073h23.758c34.398 0 66.736-13.395 91.059-37.718 8.952-8.952 13.292-23.227 15.395-34.834-10.13 7.266-14.64 13.565-16.601 17.292-7.206 13.69-17.787 24.512-30.602 31.295-16.421 8.69-32.863 10.326-48.872 4.861-26.362-9.003-42.911-36.194-39.348-64.654 4.999-39.941-20.296-59.927-21.375-60.759-2.642-1.981-4.132-5.101-4.04-8.402.091-3.302 1.805-6.333 4.552-8.164 46.699-31.133 82.959-28.917 100.472-24.807 12.191-38.477 33.666-57.686 50.198-67.132 11.01-6.291 21.268-9.146 28.366-10.441 2.948-30.594 20.656-45.884 35.722-53.416 7.549-3.775 15.087-5.913 21.229-7.124-23.782-49.482-111.846-45.724-139.3-43.264-6.469 57.174-70.598 109.858-82.988 119.544l-19.304 38.608c-1.723 3.448-5.247 5.625-9.1 5.625h-40.698c-1.579 0-3.137-.368-4.55-1.074l-7.244-3.622c-6.04-3.02-12.281-6.699-19.643-11.579-17.585-11.657-56.718-14.237-70.313-14.248-5.618-.004-10.171-4.561-10.169-10.178.002-5.618 4.555-10.171 10.172-10.171 2.244 0 55.249.2 81.552 17.636 6.657 4.414 12.217 7.698 17.499 10.339l5.096 2.548h32.008l17.537-35.074c.706-1.413 1.732-2.641 2.996-3.589.77-.578 77.326-58.751 77.326-113.954 0-5.063 3.723-9.356 8.736-10.072 1.51-.216 37.451-5.227 76.548-.013 54.403 7.253 88.136 30.997 97.553 68.664.76 3.039.077 6.26-1.851 8.729-1.928 2.47-4.887 3.913-8.019 3.913-.098.001-13.586.176-26.531 6.84-16.152 8.313-24.341 23.128-24.341 44.032 0 5.619-4.556 10.174-10.174 10.174-2.112.029-53.486 1.532-71.525 73.689-.748 2.994-2.815 5.486-5.619 6.775-2.803 1.29-6.041 1.237-8.801-.143-1.303-.618-32.279-14.725-80.975 13.159 10.086 12.147 23.47 35.281 19.19 69.477-2.371 18.938 8.452 36.967 25.732 42.868 10.635 3.634 21.354 2.458 32.777-3.587 9.178-4.859 16.825-12.739 22.115-22.788 4.832-9.182 16.077-22.869 42.207-35.934 3.156-1.579 6.902-1.406 9.898.445 3 1.854 4.826 5.129 4.826 8.655 0 1.834-.265 45.177-23.329 68.242-28.167 28.168-65.616 43.68-105.449 43.68z"/></g><g><path d="m225.486 469.664h-30.523c-2.84 0-5.55-1.186-7.476-3.273s-2.893-4.883-2.666-7.713l1.308-16.34c-2.119-3.379-3.584-7.798-2.975-12.688.773-6.205 4.512-11.656 11.141-16.264-.471-1.839-1.191-3.696-2.156-5.556-6.571-12.675-5.164-28.503 3.585-40.322.33-.447.67-.888 1.016-1.32 3.525-4.396 7.915-8.116 13.05-11.061 14.694-8.427 33.46-5.809 45.635 6.366l9.407 9.407c3.973 3.973 3.974 10.416.001 14.389-3.973 3.972-10.415 3.972-14.389 0l-9.408-9.407c-5.695-5.694-14.38-6.971-21.122-3.104-2.918 1.674-5.373 3.739-7.297 6.137-.179.224-.358.456-.534.694-4.165 5.627-4.901 13.026-1.879 18.856 3.389 6.538 5.108 13.29 5.108 20.071v.257c0 3.854-2.177 7.376-5.624 9.1-3.539 1.77-5.185 3.18-5.91 3.963 2.453 2.044 3.22 4.785 2.955 8.097l-.749 9.363h10.19c1.54-8.871 4.874-15.592 7.793-20.067 2.059-3.155 3.147-6.69 3.147-10.221v-20.584c0-5.619 4.555-10.174 10.174-10.174s10.174 4.556 10.174 10.174v20.584c0 7.491-2.232 14.87-6.454 21.342-2.44 3.739-5.349 10.092-5.349 19.121.002 5.617-4.553 10.173-10.173 10.173z"/></g><g><path d="m193.298 439.843c-2.229 0-4.473-.728-6.349-2.229l-39.04-31.226c-4.302-3.441-5.084-9.68-1.765-14.076l30.117-39.894c3.385-4.485 9.767-5.374 14.25-1.99 4.485 3.386 5.376 9.766 1.99 14.251l-24.155 31.998 31.313 25.046c4.388 3.51 5.1 9.913 1.59 14.301-2.008 2.512-4.966 3.819-7.951 3.819z"/></g><g><path d="m155.937 327.221c-2.189 0-4.394-.702-6.253-2.154-8.274-6.458-21.098-15.389-36.868-18.372-5.521-1.045-9.151-6.367-8.106-11.888s6.368-9.147 11.888-8.107c20.116 3.806 35.663 14.564 45.606 22.326 4.43 3.458 5.218 9.852 1.76 14.281-2.006 2.571-5.001 3.914-8.027 3.914z"/></g><g><path d="m204.671 382.725c-1.617 0-3.257-.387-4.782-1.2-8.075-4.31-15.552-9.469-22.224-15.334-2.826-2.486-5.759-4.572-8.597-6.589-11.022-7.836-22.42-15.938-23.294-42.217-.187-5.616 4.215-10.32 9.831-10.506 5.669-.175 10.321 4.215 10.507 9.831.539 16.208 5.287 19.583 14.747 26.309 3.107 2.209 6.63 4.713 10.243 7.892 5.416 4.76 11.769 9.14 18.369 12.662 4.957 2.647 6.831 8.81 4.185 13.767-1.832 3.431-5.349 5.385-8.985 5.385z"/></g><g><path d="m74.497 337.395h-32.151c-5.131 0-9.46-3.82-10.096-8.913-.113-.901-2.696-22.376 2.904-47.951 7.611-34.766 26.712-60.486 55.237-74.378 3.153-1.536 6.875-1.339 9.849.521s4.78 5.12 4.78 8.627v30.523c0 5.619-4.555 10.174-10.174 10.174s-10.174-4.556-10.174-10.174v-12.172c-14.7 11.743-24.6 28.715-29.513 50.66-2.915 13.018-3.356 24.995-3.216 32.733h15.182l2.661-8.123c.497-1.519 1.345-2.898 2.475-4.028 7.128-7.127 15.224-6.877 20.586-6.704 3.163.1 5.196.12 7-.659 3.472-1.501 4.555-2.361 4.834-2.624.015-.055.035-.135.057-.243 1.122-5.505 6.495-9.056 12.002-7.938 5.506 1.123 9.06 6.495 7.938 12.002-2.011 9.866-9.242 14.233-16.756 17.481-6.068 2.623-11.646 2.445-15.715 2.32-2.221-.071-3.43-.062-4.173.054l-3.866 11.804c-1.371 4.182-5.272 7.008-9.671 7.008z"/></g><g><path d="m83.046 286.523c-11.955.271-13.779-18.075-1.993-20.155 14.386-2.594 16.613 19.877 1.993 20.155z"/></g><g><path d="m316.456 509.592c-1.13 0-2.278-.19-3.404-.589-63.269-22.464-84.541-84.37-85.415-86.994-1.777-5.332 1.104-11.094 6.436-12.87 5.324-1.776 11.078 1.097 12.862 6.415.186.55 19.211 55.201 72.926 74.273 5.296 1.881 8.064 7.697 6.184 12.992-1.481 4.169-5.404 6.773-9.589 6.773z"/></g></g></svg>